<svg width="65" height="59" viewBox="0 0 65 59" fill="none" xmlns="http://www.w3.org/2000/svg">
<path d="M4.69411 30.6078C4.69411 30.6078 7.68502 21.531 13.9313 21.531C20.1776 21.531 15.4932 28.9488 22.5206 28.9488C29.548 28.9488 29.548 19.5789 33.4521 19.1885C37.3562 18.7981 38.137 28.9488 44.3836 28.9488C50.6302 28.9488 45.9452 21.531 49.8493 21.531C53.7534 21.531 60 27.7775 60 27.7775" stroke="#FEA31B" stroke-width="9.36985" stroke-linecap="round" stroke-linejoin="round"/>
<path d="M1.57082 32.4596C1.57082 32.4596 4.56173 23.3828 10.808 23.3828C17.0543 23.3828 12.3699 30.8006 19.3973 30.8006C26.4247 30.8006 26.4247 21.4307 30.3288 21.0403C34.2329 20.6499 35.0137 30.8006 41.2603 30.8006C47.5069 30.8006 42.8219 23.3828 46.726 23.3828C50.6302 23.3828 56.8767 29.6294 56.8767 29.6294" stroke="black" stroke-width="0.780821" stroke-linecap="round" stroke-linejoin="round"/>
</svg>
