<svg width="24" height="24" viewBox="0 0 32 24" fill="none" xmlns="http://www.w3.org/2000/svg">
<path d="M4.87759 12.5704C4.87759 12.5704 6.07396 8.82317 8.57248 8.82317C11.071 8.82317 9.19724 11.8855 12.0082 11.8855C14.8192 11.8855 14.8192 8.01728 16.3808 7.8561C17.9424 7.69493 18.2548 11.8855 20.7534 11.8855C23.252 11.8855 21.3781 8.82317 22.9397 8.82317C24.5013 8.82317 27 11.402 27 11.402" stroke="#FEA31B" stroke-width="9.36985" stroke-linecap="round" stroke-linejoin="round"/>
<path d="M3.62833 13.3348C3.62833 13.3348 4.82469 9.58758 7.32321 9.58758C9.82173 9.58758 7.94798 12.6499 10.7589 12.6499C13.5699 12.6499 13.5699 8.78168 15.1315 8.62051C16.6932 8.45933 17.0055 12.6499 19.5041 12.6499C22.0028 12.6499 20.1288 9.58758 21.6904 9.58758C23.2521 9.58758 25.7507 12.1664 25.7507 12.1664" stroke="black" stroke-width="0.780821" stroke-linecap="round" stroke-linejoin="round"/>
</svg>
