<svg width="36" height="40" viewBox="0 0 36 40" fill="none" xmlns="http://www.w3.org/2000/svg">
<path d="M22 16L18 18L22 16ZM18 18L14 16L18 18ZM18 18V23V18ZM34 10L30 12L34 10ZM34 10L30 8L34 10ZM34 10V15V10ZM22 4L18 2L14 4M2 10L6 8L2 10ZM2 10L6 12L2 10ZM2 10V15V10ZM18 38L14 36L18 38ZM18 38L22 36L18 38ZM18 38V33V38ZM6 32L2 30V25M30 32L34 30V25" fill="#DDF247"/>
<path d="M22 16L18 18M18 18L14 16M18 18V23M34 10L30 12M34 10L30 8M34 10V15M22 4L18 2L14 4M2 10L6 8M2 10L6 12M2 10V15M18 38L14 36M18 38L22 36M18 38V33M6 32L2 30V25M30 32L34 30V25" stroke="#DDF247" stroke-width="4" stroke-linecap="round" stroke-linejoin="round"/>
</svg>
