<svg width="84" height="32" viewBox="0 0 84 32" fill="none" xmlns="http://www.w3.org/2000/svg">
<g opacity="0.5" clip-path="url(#clip0_28_200-886880)">
<path d="M13.0832 7.43028L6.64763 3.71522L0.213867 7.43028L0.213867 3.71522L6.6486 0L13.0841 3.71522V7.43028H13.0832Z" fill="#5A5A5A"/>
<path d="M0.213867 10.5501H3.58462V18.7397C3.58462 20.8557 5.16475 21.887 6.6486 21.887C8.14524 21.887 9.71339 20.8282 9.71339 18.7114V10.5502H13.0841V18.9348C13.0841 20.884 12.4713 22.3881 11.2458 23.4194C10.0194 24.45 8.48777 24.9518 6.62013 24.9518C4.75426 24.9518 3.22187 24.4509 2.02472 23.4196C0.826599 22.3887 0.213867 20.9406 0.213867 19.018L0.213867 10.5501ZM42.2256 20.7284C41.2053 21.637 40.0429 22.0821 38.7174 22.0821C36.2994 22.0821 34.678 20.7046 34.4948 18.5711H45.3856C45.3856 18.5711 45.4589 17.8825 45.4589 17.2358C45.4589 15.2298 44.8177 13.5581 43.508 12.1933C42.2275 10.8285 40.5568 10.1598 38.5223 10.1598C36.378 10.1598 34.6221 10.8285 33.2289 12.1933C31.8641 13.5581 31.1681 15.3406 31.1681 17.57V17.6801C31.1681 19.881 31.8641 21.636 33.2289 22.9458C34.5938 24.2548 36.4047 24.9235 38.6056 24.9235C41.165 24.9235 43.201 23.914 44.7289 22.1737L42.2256 20.7284V20.7284ZM35.8193 13.8924C36.5704 13.3071 37.491 13.0012 38.5213 13.0012C39.496 13.0012 40.3039 13.3071 41.0009 13.9208C41.6659 14.4795 42.0251 15.1657 42.0562 15.9543H34.581C34.689 15.139 35.1012 14.4522 35.8203 13.8933L35.8193 13.8925V13.8924ZM76.1567 26.8159C74.7892 30.0446 73.3584 31.1429 71.1647 31.1429H69.6441V28.1549H70.8733C71.6281 28.1549 72.3298 27.871 72.9984 26.3285L73.6671 24.7842L67.9001 10.5501H71.3268L75.422 20.8016L79.6291 10.5501H83.0548L76.1577 26.8157H76.1567V26.8159ZM26.2062 5.17432V11.8215C25.1016 10.8323 23.3833 10.2433 21.7216 10.2433C19.7431 10.2433 18.0724 10.9394 16.7076 12.3592C15.3704 13.7522 14.7016 15.479 14.7016 17.5683C14.7016 19.6585 15.3704 21.3851 16.7076 22.8057C18.0724 24.1988 19.7441 24.896 21.7218 24.896C24.0025 24.896 25.4441 23.9993 26.2062 23.2967V24.5892H29.5496V5.17513H26.2062V5.17432V5.17432ZM25.2032 20.634C24.3953 21.4419 23.365 21.8605 22.1669 21.8605C20.9688 21.8605 19.9942 21.4419 19.1862 20.634C18.4076 19.8262 18.0166 18.7957 18.0166 17.57C18.0166 16.3436 18.4068 15.3131 19.1864 14.5052C19.9942 13.6974 20.9688 13.2796 22.1667 13.2796C23.365 13.2796 24.3953 13.6974 25.2032 14.5052C26.0386 15.3131 26.4581 16.3436 26.4581 17.57C26.4581 18.7957 26.0386 19.8262 25.2032 20.634V20.634ZM62.703 10.2716C60.1639 10.2716 58.8441 11.3249 57.9399 12.3399C57.5782 11.6501 56.5596 10.2716 54.1797 10.2716C52.1684 10.2716 50.9832 11.2884 50.3914 12.0119V10.5519H47.0774V24.591H50.3914V16.5122C50.3914 14.6179 51.562 13.2531 53.1209 13.2531C54.7103 13.2531 55.6288 14.4512 55.6288 16.3729V24.59H58.9439V16.5112C58.9439 14.5895 60.0851 13.2523 61.7284 13.2523C63.3167 13.2523 64.2354 14.4502 64.2354 16.3711V24.5892H67.5786V15.8983C67.5786 12.2381 65.6111 10.2724 62.703 10.2724V10.2715V10.2716Z" fill="black"/>
</g>
<defs>
<clipPath id="clip0_28_200-886880">
<rect width="82.841" height="31.2272" fill="white" transform="translate(0.213867)"/>
</clipPath>
</defs>
</svg>
