<svg width="154" height="154" viewBox="0 0 154 154" fill="none" xmlns="http://www.w3.org/2000/svg">
<path d="M83.1631 115.462C86.9498 115.058 92.0363 114.403 95.6567 113.373M95.6567 113.373C96.0739 113.255 94.2983 110.526 94.2058 110.408C92.1796 107.799 89.8742 105.535 87.4751 103.278M95.6567 113.373C75.099 110.998 60.2617 96.2456 59.924 81.4958C59.8905 80.0339 59.8556 78.4428 59.9625 76.8554M59.9625 76.8554C60.1326 74.3274 60.6623 71.809 62.1298 69.8375C63.4843 68.0181 66.0152 66.2186 68.3694 66.5169C72.7673 67.0743 74.0353 72.8156 71.0489 75.8712C68.4247 78.5565 62.9148 79.1094 59.9625 76.8554ZM59.9625 76.8554C59.9002 76.8078 59.8391 76.759 59.7791 76.709C45.3096 64.6283 53.6242 44.0847 67.1994 36.761" stroke="#FEA31B" stroke-width="2.34877" stroke-miterlimit="1.5" stroke-linecap="round" stroke-linejoin="round"/>
</svg>
