<svg width="40" height="40" viewBox="0 0 40 40" fill="none" xmlns="http://www.w3.org/2000/svg">
<path d="M32.5 28.3333L36.6667 32.4999L32.5 36.6666" stroke="black" stroke-width="4" stroke-linecap="round" stroke-linejoin="round"/>
<path d="M6.66659 9.99992C7.55064 9.99992 8.39849 9.64873 9.02361 9.02361C9.64873 8.39849 9.99992 7.55064 9.99992 6.66659C9.99992 5.78253 9.64873 4.93468 9.02361 4.30956C8.39849 3.68444 7.55064 3.33325 6.66659 3.33325C5.78253 3.33325 4.93468 3.68444 4.30956 4.30956C3.68444 4.93468 3.33325 5.78253 3.33325 6.66659C3.33325 7.55064 3.68444 8.39849 4.30956 9.02361C4.93468 9.64873 5.78253 9.99992 6.66659 9.99992V9.99992Z" stroke="black" stroke-width="4" stroke-linejoin="round"/>
<path d="M10 6.6665H16.6667C17.5507 6.6665 18.3986 7.01769 19.0237 7.64281C19.6488 8.26794 20 9.11578 20 9.99984V29.1665C20 30.0506 20.3512 30.8984 20.9763 31.5235C21.6014 32.1486 22.4493 32.4998 23.3333 32.4998H36.6667" stroke="black" stroke-width="4" stroke-linecap="round" stroke-linejoin="round"/>
</svg>
