<svg width="36" height="40" viewBox="0 0 36 40" fill="none" xmlns="http://www.w3.org/2000/svg">
<path d="M12.8333 33.8477C12.8333 31.3252 11.2942 29.2257 9.08325 28.2106V21.4584C10.552 22.2966 12.2629 22.7734 14.0833 22.7734H21.5833C24.3411 22.7734 26.5833 24.9806 26.5833 27.6953V28.2106C24.3723 29.2257 22.8333 31.3252 22.8333 33.8477C22.8333 37.2453 25.6301 40 29.0833 40C32.5364 40 35.3333 37.2453 35.3333 33.8477C35.3333 31.3252 33.7942 29.2257 31.5833 28.2106V27.6953C31.5833 22.2582 27.1067 17.8516 21.5833 17.8516H14.0833C11.3254 17.8516 9.08325 15.6444 9.08325 12.9297V12.4144C11.2942 11.4685 12.8333 9.2998 12.8333 6.77734C12.8333 3.37817 10.0364 0.624999 6.58325 0.624999C3.13169 0.624999 0.333252 3.37817 0.333252 6.77734C0.333252 9.2998 1.87622 11.4685 4.08325 12.4144V28.2106C1.87622 29.2257 0.333252 31.3252 0.333252 33.8477C0.333252 37.2453 3.13169 40 6.58325 40C10.0364 40 12.8333 37.2453 12.8333 33.8477ZM6.58325 32.002C7.61841 32.002 8.45825 32.8287 8.45825 33.8477C8.45825 34.8666 7.61841 35.6934 6.58325 35.6934C5.5481 35.6934 4.70825 34.8666 4.70825 33.8477C4.70825 32.8287 5.5481 32.002 6.58325 32.002ZM29.0833 35.6934C28.0442 35.6934 27.2083 34.8666 27.2083 33.8477C27.2083 32.8287 28.0442 32.002 29.0833 32.002C30.1223 32.002 30.9583 32.8287 30.9583 33.8477C30.9583 34.8666 30.1223 35.6934 29.0833 35.6934ZM6.58325 4.93164C7.61841 4.93164 8.45825 5.75452 8.45825 6.77734C8.45825 7.80017 7.61841 8.62305 6.58325 8.62305C5.5481 8.62305 4.70825 7.80017 4.70825 6.77734C4.70825 5.75452 5.5481 4.93164 6.58325 4.93164Z" fill="#DDF247"/>
</svg>
