<svg width="335" height="48" viewBox="0 0 335 48" fill="none" xmlns="http://www.w3.org/2000/svg">
<path d="M109.998 1.63945V27.7397C109.998 33.5065 113.212 36.9117 118.791 36.9117C125.032 36.9117 128.62 33.1282 128.62 25.8463V1.63945H140.252V46.5553H128.628V41.352C125.888 45.607 121.442 47.6882 115.297 47.6882C104.895 47.6915 98.3719 40.1265 98.3719 29.1563V1.63945H109.998ZM234.916 0.789617C248.156 0.815706 257.495 11.422 257.463 23.9151C257.466 25.1505 257.369 26.3841 257.174 27.604L222.946 27.5401C224.258 32.9313 228.695 36.8165 235.41 36.8308C239.475 36.8308 243.828 35.3334 246.481 31.934L254.414 38.2931C250.335 44.0547 243.14 47.4456 235.485 47.4306C221.971 47.3849 211.588 37.247 211.611 24.1029C211.637 11.5257 220.639 0.763529 234.916 0.789617V0.789617ZM308.721 0.789617C315.812 0.789617 319.879 2.96344 322.62 7.12651L323.709 1.63358H334.344V46.5553H323.709L322.336 41.9298C319.217 45.335 315.338 47.4221 308.721 47.4221C298.508 47.4078 286.876 38.4235 286.876 24.4297C286.876 10.3406 298.317 0.789617 308.721 0.789617V0.789617ZM70.4181 0.789617C83.75 0.789617 94.3412 11.1963 94.3412 24.0514C94.3412 36.8165 83.75 47.4078 70.4181 47.4078C57.1788 47.4078 46.5902 36.8048 46.5902 24.0514C46.5902 11.1898 57.1788 0.789617 70.4181 0.789617V0.789617ZM190.021 0.503296C197.519 0.503296 204.162 3.82501 207.769 9.99363L197.525 15.4135C196.007 12.3755 193.16 10.6674 189.552 10.6674C186.044 10.6674 184.331 11.9014 184.331 13.9884C184.331 21.0128 208.819 16.5529 208.819 33.3565C208.819 42.0896 201.702 47.4019 190.218 47.4019C180.441 47.3934 173.607 44.1669 170.193 36.7643L180.531 31.3529C182.239 35.0562 185.655 37.2385 190.497 37.2385C194.958 37.2385 196.666 35.8167 196.666 33.8215C196.666 26.595 172.179 30.9746 172.179 14.4541C172.179 5.34271 180.152 0.503296 190.021 0.503296V0.503296ZM24.2395 0.694394C28.2203 0.666541 32.1454 1.62958 35.6612 3.49672C39.177 5.36387 42.173 8.07645 44.3792 11.39L34.4525 17.1484C33.304 15.5069 31.7752 14.1679 29.9967 13.2457C28.2182 12.3234 26.2429 11.8454 24.2395 11.8524C17.4317 11.8524 11.8527 17.5267 11.8527 24.0514C11.8527 30.5755 17.4317 36.2497 24.2395 36.2497C26.3373 36.2634 28.4035 35.7392 30.241 34.7271C32.0785 33.715 33.626 32.2488 34.7356 30.4685L44.5644 36.3306C42.3852 39.7413 39.3779 42.5447 35.823 44.4797C32.268 46.4147 28.2811 47.4182 24.2337 47.3967C11.0003 47.4078 0.411621 36.8048 0.411621 24.0514C0.411621 11.0985 11.0003 0.694394 24.2395 0.694394ZM170.124 0.480469L167.979 11.3352C167.584 11.2922 167.186 11.27 166.788 11.2687C160.55 11.2831 156.963 15.0724 156.98 22.3517L157.044 46.5521L145.415 46.5782L145.316 1.66554L156.945 1.63945V6.8428C159.654 2.61646 164.054 0.529385 170.124 0.480469V0.480469ZM286.983 0.512427L284.827 11.3554C284.431 11.3137 284.034 11.2915 283.636 11.2889C277.403 11.2889 273.807 15.0698 273.807 22.3517V46.5553H262.178V1.63684L273.807 1.63684V6.83953C276.527 2.62168 280.921 0.543733 286.983 0.511775V0.512427ZM70.4181 11.9477C63.611 11.9477 58.0319 17.6219 58.0319 24.0514C58.0319 30.5755 63.611 36.2497 70.4181 36.2497C77.3328 36.2497 82.9001 30.5755 82.9001 24.0514C82.9001 17.6226 77.3211 11.9477 70.4181 11.9477ZM310.71 11.9522C309.077 11.9583 307.462 12.2859 305.956 12.9164C304.45 13.5469 303.084 14.4679 301.934 15.6268C300.784 16.7853 299.873 18.159 299.254 19.6694C298.635 21.1798 298.32 22.7974 298.326 24.4297C298.326 30.6714 303.905 36.2497 310.716 36.2497C317.61 36.2497 323.186 30.6707 323.186 24.3345C323.173 21.0381 321.851 17.8818 319.512 15.5598C317.172 13.2377 314.006 11.9401 310.709 11.9522H310.71ZM234.804 11.3815C229.412 11.3815 225.059 14.5787 223.347 19.3972L245.756 19.4377C245.103 14.8989 240.382 11.3894 234.804 11.3815Z" fill="#4D4D4D"/>
</svg>
