<svg width="83" height="13" viewBox="0 0 83 13" fill="none" xmlns="http://www.w3.org/2000/svg">
<g opacity="0.5" clip-path="url(#clip0_28_199-227536)">
<path d="M27.2404 0.995524V7.47039C27.2404 8.90101 28.0379 9.74576 29.422 9.74576C30.9702 9.74576 31.8601 8.80717 31.8601 7.00068V0.995524H34.7458V12.1381H31.8622V10.8473C31.1825 11.9029 30.0795 12.4192 28.555 12.4192C25.9747 12.42 24.3564 10.5433 24.3564 7.82181V0.995524H27.2404ZM58.2297 0.7847C61.5143 0.791172 63.8312 3.42234 63.8233 6.5216C63.8239 6.82807 63.7999 7.13409 63.7516 7.43673L55.2603 7.42088C55.5858 8.7583 56.6865 9.72214 58.3524 9.7257C59.3607 9.7257 60.4407 9.35421 61.0989 8.51091L63.0667 10.0885C62.0548 11.5178 60.27 12.359 58.371 12.3553C55.0185 12.3439 52.4427 9.82893 52.4484 6.5682C52.4548 3.44807 54.688 0.778228 58.2297 0.7847V0.7847ZM76.5392 0.7847C78.2983 0.7847 79.3073 1.32398 79.9871 2.35674L80.2573 0.994068H82.8956V12.1381H80.2573L79.9168 10.9906C79.143 11.8354 78.1807 12.3531 76.5392 12.3531C74.0054 12.3496 71.1199 10.1208 71.1199 6.64926C71.1199 3.15408 73.9582 0.7847 76.5392 0.7847V0.7847ZM17.4217 0.7847C20.729 0.7847 23.3565 3.36636 23.3565 6.55541C23.3565 9.72214 20.729 12.3496 17.4217 12.3496C14.1373 12.3496 11.5105 9.71923 11.5105 6.55541C11.5105 3.36474 14.1373 0.7847 17.4217 0.7847V0.7847ZM47.0923 0.713671C48.9525 0.713671 50.6004 1.53771 51.4954 3.068L48.954 4.41255C48.5775 3.65889 47.8711 3.23514 46.9762 3.23514C46.1057 3.23514 45.681 3.54127 45.681 4.05902C45.681 5.80159 51.7557 4.69521 51.7557 8.8638C51.7557 11.0303 49.9901 12.3481 47.1412 12.3481C44.7158 12.346 43.0205 11.5456 42.1736 9.70919L44.7382 8.36675C45.1619 9.28544 46.0094 9.82682 47.2106 9.82682C48.3171 9.82682 48.7409 9.4741 48.7409 8.97916C48.7409 7.18643 42.6663 8.27291 42.6663 4.17455C42.6663 1.91422 44.6442 0.713671 47.0923 0.713671V0.713671ZM5.96584 0.761078C6.95337 0.754168 7.9271 0.993075 8.79929 1.45627C9.67148 1.91947 10.4147 2.59239 10.962 3.41442L8.49945 4.84294C8.21452 4.43573 7.83526 4.10354 7.39406 3.87476C6.95286 3.64597 6.46283 3.52738 5.96584 3.52913C4.27699 3.52913 2.89296 4.93678 2.89296 6.55541C2.89296 8.17389 4.27699 9.58154 5.96584 9.58154C6.48625 9.58494 6.99884 9.45489 7.45468 9.20381C7.91052 8.95273 8.2944 8.58901 8.56967 8.14735L11.008 9.6016C10.4674 10.4477 9.72133 11.1432 8.83943 11.6232C7.95752 12.1032 6.96845 12.3522 5.96439 12.3468C2.68149 12.3496 0.0546875 9.71923 0.0546875 6.55541C0.0546875 3.34209 2.68149 0.761078 5.96584 0.761078ZM42.1565 0.708008L41.6242 3.40082C41.5263 3.39015 41.4276 3.38464 41.3289 3.38432C39.7813 3.38788 38.8914 4.32793 38.8958 6.13377L38.9115 12.1373L36.0266 12.1438L36.0022 1.002L38.887 0.995524V2.28635C39.559 1.2379 40.6505 0.720143 42.1565 0.708008V0.708008ZM71.1465 0.715936L70.6116 3.40584C70.5134 3.39549 70.4148 3.38999 70.3161 3.38934C68.77 3.38934 67.8778 4.32728 67.8778 6.13377V12.1381H64.9929V0.994877H67.8778V2.28555C68.5525 1.23919 69.6427 0.723702 71.1465 0.715774V0.715936ZM17.4217 3.55275C15.733 3.55275 14.349 4.9604 14.349 6.55541C14.349 8.17389 15.733 9.58154 17.4217 9.58154C19.1371 9.58154 20.5182 8.17389 20.5182 6.55541C20.5182 4.96056 19.1342 3.55275 17.4217 3.55275ZM77.0325 3.55389C76.6276 3.55539 76.2268 3.63667 75.8533 3.79308C75.4797 3.94949 75.1406 4.17797 74.8554 4.46546C74.5701 4.75285 74.3442 5.09363 74.1907 5.46833C74.0371 5.84304 73.9589 6.24432 73.9605 6.64926C73.9605 8.19767 75.3445 9.58154 77.034 9.58154C78.7442 9.58154 80.1276 8.19751 80.1276 6.62563C80.1244 5.80788 79.7965 5.02488 79.216 4.44883C78.6356 3.87279 77.8501 3.55088 77.0324 3.55389H77.0325ZM58.2019 3.41231C56.8645 3.41231 55.7845 4.20545 55.3599 5.40082L60.919 5.41085C60.7569 4.28489 59.5858 3.41425 58.2019 3.41231Z" fill="#4D4D4D"/>
</g>
<defs>
<clipPath id="clip0_28_199-227536">
<rect width="82.841" height="11.8113" fill="white" transform="translate(0.0546875 0.708008)"/>
</clipPath>
</defs>
</svg>
