<svg width="51" height="31" viewBox="0 0 51 31" fill="none" xmlns="http://www.w3.org/2000/svg">
<g opacity="0.5">
<path fill-rule="evenodd" clip-rule="evenodd" d="M5.43357 1.98916L32.8585 1.98282L31.8887 6.51341L49.4439 6.50935L44.757 29.2432L22.5096 29.2483L23.7218 23.3424L0.746344 23.3477L5.43357 1.98916ZM26.5819 6.64528L24.6596 6.64528L23.8408 11.3287C23.3068 10.3813 22.3456 9.89867 20.9572 9.89867C20.0494 9.89867 19.2307 10.1489 18.4831 10.6137C17.7355 11.0785 17.1481 11.7399 16.7209 12.5622C16.2937 13.3844 16.0801 14.314 16.0801 15.315C16.0801 16.0658 16.2225 16.7451 16.5429 17.3529C16.8633 17.9606 17.3083 18.4254 17.8779 18.7651C18.4475 19.1047 19.0883 19.2656 19.8359 19.2656C20.441 19.2656 20.9928 19.1583 21.4912 18.9259C21.9718 18.6936 22.3812 18.3718 22.7372 17.9606L22.755 19.1583L24.3748 19.1583L26.5819 6.64528ZM21.9006 17.1384C21.42 17.478 20.8682 17.6389 20.2452 17.6389C19.5689 17.6389 19.0171 17.4244 18.6255 16.9775C18.2339 16.5306 18.0381 15.8871 18.0381 15.0648C18.0381 14.4927 18.1627 13.9207 18.4119 13.3844C18.6611 12.8482 19.0349 12.4013 19.5155 12.0616C19.9783 11.722 20.53 11.5432 21.1708 11.5432C21.8472 11.5432 22.3812 11.7756 22.7728 12.2046C23.1644 12.6515 23.378 13.2772 23.378 14.0995C23.378 14.6894 23.2356 15.2614 22.9864 15.7977C22.7372 16.3518 22.3634 16.7987 21.9006 17.1384ZM13.1533 10.3634C12.566 10.0596 11.8896 9.89867 11.1064 9.89867C10.074 9.89867 9.16622 10.1489 8.40083 10.6137C7.63545 11.0785 7.04806 11.722 6.63867 12.5264C6.22928 13.3487 6.03348 14.2425 6.03348 15.2257C6.03348 16.0122 6.19368 16.7093 6.53187 17.3171C6.87006 17.9249 7.35066 18.4075 7.99144 18.7472C8.63223 19.1047 9.36202 19.2656 10.2164 19.2656C11.3022 19.2656 12.2278 18.9974 13.0109 18.4254C13.7763 17.8713 14.2925 17.0847 14.5595 16.0837L12.6371 16.0837C12.388 16.62 12.0854 17.0311 11.7294 17.2992C11.3734 17.5674 10.875 17.6925 10.252 17.6925C9.54001 17.6925 8.98822 17.478 8.57883 17.0132C8.15164 16.5485 7.95584 16.0122 7.95584 15.3687C7.95584 15.2435 7.95584 15.1363 7.97364 15.029L14.8087 15.029C14.9155 14.6 14.9689 14.1174 14.9689 13.5811C14.9689 12.8661 14.8087 12.2225 14.5061 11.6684C14.1857 11.1142 13.7407 10.6852 13.1533 10.3634ZM12.9575 13.5811L8.27624 13.5811C8.43643 12.9554 8.75683 12.437 9.25522 12.0438C9.73581 11.6505 10.3054 11.4539 10.964 11.4539C11.5692 11.4539 12.0676 11.6326 12.4236 11.9544C12.7795 12.2761 12.9753 12.7409 12.9753 13.3308C12.9753 13.3936 12.9692 13.4503 12.9642 13.4973L12.9642 13.4973L12.9642 13.4973L12.9642 13.4973L12.9642 13.4973L12.9642 13.4973L12.9642 13.4973C12.9606 13.5305 12.9575 13.5589 12.9575 13.5811ZM33.4328 18.6047L29.7892 10.7517L33.8144 10.6643L36.1338 15.731L40.2925 10.5981L44.2488 10.5577L37.8286 18.5598L41.6842 26.7808L37.6123 26.8224L35.1274 21.4102L30.6715 26.8933L26.7384 26.9335L33.4328 18.6047Z" fill="#4D4D4D"/>
</g>
</svg>
