<svg width="197" height="111" viewBox="0 0 197 111" fill="none" xmlns="http://www.w3.org/2000/svg">
<path fill-rule="evenodd" clip-rule="evenodd" d="M18.9027 0.636589L129.453 0.611029L125.544 18.8739L196.309 18.8575L177.416 110.498L87.7365 110.518L92.6226 86.7115L0.0084873 86.7329L18.9027 0.636589ZM104.152 19.4054L96.4028 19.4054L93.1023 38.2845C90.9498 34.4654 87.0753 32.5199 81.4787 32.5199C77.8194 32.5199 74.5189 33.5287 71.5054 35.4022C68.4919 37.2757 66.1241 39.9418 64.4021 43.2564C62.6801 46.5711 61.8191 50.3181 61.8191 54.3533C61.8191 57.3797 62.3931 60.1179 63.6846 62.5678C64.9761 65.0178 66.7699 66.8913 69.0659 68.2604C71.3619 69.6294 73.9449 70.278 76.9584 70.278C79.398 70.278 81.6222 69.8456 83.6312 68.9089C85.5685 67.9721 87.2188 66.6751 88.6538 65.0178L88.7255 69.8456L95.2548 69.8456L104.152 19.4054ZM85.2815 61.7031C83.3442 63.0722 81.12 63.7207 78.6087 63.7207C75.8822 63.7207 73.6579 62.856 72.0794 61.0546C70.5009 59.2532 69.7116 56.6591 69.7116 53.3445C69.7116 51.0386 70.2139 48.7328 71.2184 46.5711C72.2229 44.4093 73.7297 42.6079 75.6669 41.2388C77.5324 39.8697 79.7567 39.1492 82.3397 39.1492C85.0662 39.1492 87.2188 40.0859 88.7973 41.8153C90.3758 43.6167 91.2368 46.1387 91.2368 49.4534C91.2368 51.8313 90.6628 54.1371 89.6583 56.2988C88.6538 58.5326 87.147 60.334 85.2815 61.7031ZM50.0212 34.3934C47.6534 33.1684 44.9269 32.5199 41.7699 32.5199C37.6083 32.5199 33.9491 33.5287 30.8638 35.4022C27.7785 37.2757 25.4108 39.8697 23.7605 43.1123C22.1102 46.427 21.321 50.0298 21.321 53.993C21.321 57.1635 21.9667 59.9737 23.33 62.4237C24.6932 64.8736 26.6305 66.8192 29.2135 68.1883C31.7965 69.6294 34.7383 70.278 38.1823 70.278C42.5591 70.278 46.2901 69.1971 49.4472 66.8913C52.5324 64.6575 54.6132 61.487 55.6895 57.4517L47.9404 57.4517C46.9359 59.6135 45.7161 61.2708 44.2811 62.3516C42.8461 63.4325 40.8371 63.9369 38.3258 63.9369C35.4558 63.9369 33.2316 63.0722 31.5813 61.1987C29.8593 59.3252 29.07 57.1635 29.07 54.5694C29.07 54.065 29.07 53.6327 29.1418 53.2004L56.694 53.2004C57.1245 51.471 57.3397 49.5254 57.3397 47.3637C57.3397 44.4814 56.694 41.8873 55.4742 39.6536C54.1827 37.4198 52.3889 35.6904 50.0212 34.3934ZM49.2319 47.3637L30.3615 47.3637C31.0073 44.8417 32.2988 42.752 34.3078 41.1668C36.2451 39.5815 38.5411 38.7889 41.1959 38.7889C43.6354 38.7889 45.6444 39.5094 47.0794 40.8065C48.5144 42.1035 49.3037 43.977 49.3037 46.3549C49.3037 46.6082 49.2791 46.8367 49.2587 47.026C49.2442 47.1599 49.2319 47.2742 49.2319 47.3637ZM131.77 67.9005L117.083 36.2452L133.309 35.8928L142.658 56.3169L159.422 35.626L175.37 35.463L149.49 67.7195L165.032 100.858L148.618 101.026L138.602 79.2098L120.64 101.312L104.785 101.474L131.77 67.9005Z" fill="#4D4D4D"/>
</svg>
