<svg width="267" height="267" viewBox="0 0 267 267" fill="none" xmlns="http://www.w3.org/2000/svg">
<g clip-path="url(#clip0_24_490)">
<path d="M96.6517 63.3035C94.3326 61.9682 91.4778 61.9699 89.1603 63.3079C86.8428 64.6459 85.4139 67.1174 85.4107 69.7934L85.2286 221.894C85.2254 224.575 86.6535 227.054 88.9743 228.396C91.2952 229.737 94.1557 229.738 96.4774 228.398L228.474 152.19C230.795 150.849 232.225 148.372 232.223 145.691C232.222 143.01 230.789 140.534 228.466 139.196L96.6517 63.3035Z" fill="#DDF247" stroke="#E9E9E9" stroke-width="14.9983" stroke-linejoin="round"/>
<path d="M101.07 119.324L133.951 100.419L101.943 160.376L162.681 123.918L108.954 192.918L189.43 144.349" stroke="black" stroke-width="7.49915" stroke-linejoin="bevel"/>
</g>
<defs>
<clipPath id="clip0_24_490">
<rect width="194.978" height="194.978" fill="white" transform="translate(0 97.489) rotate(-30)"/>
</clipPath>
</defs>
</svg>
