<svg width="335" height="126" viewBox="0 0 335 126" fill="none" xmlns="http://www.w3.org/2000/svg">
<g clip-path="url(#clip0_24_489)">
<path d="M52.2205 29.9515L26.2788 14.9761L0.344238 29.9515L0.344238 14.9761L26.2827 0L52.2244 14.9761V29.9515H52.2205Z" fill="#5A5A5A"/>
<path d="M0.344238 42.5274H13.9318V75.5398C13.9318 84.0694 20.3013 88.2266 26.2827 88.2266C32.3157 88.2266 38.6369 83.9585 38.6369 75.4256V42.5281H52.2244V76.3263C52.2244 84.1835 49.7539 90.2465 44.814 94.4037C39.8702 98.5583 33.6964 100.581 26.1679 100.581C18.6466 100.581 12.4695 98.5615 7.64379 94.4043C2.81416 90.2491 0.344238 84.4118 0.344238 76.6616L0.344238 42.5274ZM169.694 83.5561C165.581 87.2189 160.895 89.0132 155.552 89.0132C145.805 89.0132 139.269 83.4602 138.531 74.8602H182.432C182.432 74.8602 182.727 72.0844 182.727 69.4775C182.727 61.3913 180.143 54.6527 174.863 49.1513C169.701 43.6499 162.967 40.9543 154.766 40.9543C146.122 40.9543 139.044 43.6499 133.428 49.1513C127.927 54.6527 125.121 61.8381 125.121 70.8249V71.2684C125.121 80.1405 127.927 87.215 133.428 92.4947C138.93 97.7711 146.23 100.467 155.102 100.467C165.418 100.467 173.626 96.3975 179.785 89.3823L169.694 83.5561ZM143.87 56.0001C146.898 53.6411 150.609 52.4078 154.762 52.4078C158.691 52.4078 161.947 53.6411 164.757 56.1149C167.438 58.367 168.886 61.1331 169.011 64.3119H138.879C139.314 61.0254 140.975 58.2568 143.874 56.0041L143.87 56.0008V56.0001ZM306.47 108.095C300.958 121.11 295.19 125.537 286.348 125.537H280.218V113.493H285.173C288.216 113.493 291.044 112.348 293.739 106.13L296.435 99.9051L273.188 42.5274H287.001L303.509 83.8516L320.467 42.5274H334.277L306.474 108.094H306.47V108.095ZM105.119 20.8577V47.6525C100.667 43.6649 93.7403 41.2908 87.0421 41.2908C79.0669 41.2908 72.3321 44.0966 66.8307 49.8198C61.4402 55.4353 58.7446 62.3957 58.7446 70.8177C58.7446 79.2437 61.4402 86.2034 66.8307 91.9299C72.3321 97.5454 79.0708 100.356 87.0428 100.356C96.2363 100.356 102.048 96.7412 105.119 93.9093V99.1192H118.597V20.8609H105.119V20.8577ZM101.076 83.1759C97.8199 86.4324 93.6666 88.1196 88.837 88.1196C84.0074 88.1196 80.0791 86.4324 76.822 83.1759C73.6835 79.9194 72.1071 75.7654 72.1071 70.8249C72.1071 65.8812 73.6803 61.7272 76.8226 58.4707C80.0791 55.2142 84.0074 53.5302 88.8363 53.5302C93.6666 53.5302 97.8199 55.2142 101.076 58.4707C104.444 61.7272 106.135 65.8812 106.135 70.8249C106.135 75.7654 104.444 79.9194 101.076 83.1759ZM252.238 41.405C242.003 41.405 236.683 45.6508 233.038 49.7422C231.58 46.9618 227.474 41.405 217.881 41.405C209.773 41.405 204.996 45.5034 202.61 48.4201V42.5346H189.252V99.1264H202.61V66.5608C202.61 58.9247 207.329 53.4233 213.613 53.4233C220.02 53.4233 223.722 58.2529 223.722 65.9992V99.1224H237.085V66.5568C237.085 58.8105 241.685 53.42 248.31 53.42C254.712 53.42 258.415 58.249 258.415 65.992V99.1192H271.892V64.0863C271.892 49.3319 263.961 41.4082 252.238 41.4082V41.4043V41.405Z" fill="#5A5A5A"/>
</g>
<defs>
<clipPath id="clip0_24_489">
<rect width="333.932" height="125.877" fill="white" transform="translate(0.344238)"/>
</clipPath>
</defs>
</svg>
